<?xml version="1.0" encoding="UTF-8" ?>
<!DOCTYPE svg PUBLIC "-//W3C//DTD SVG 1.1//EN" "http://www.w3.org/Graphics/SVG/1.1/DTD/svg11.dtd">
<svg width="231pt" height="281pt" viewBox="0 0 231 281" version="1.1" xmlns="http://www.w3.org/2000/svg">
<path fill="#eac06f" d=" M 105.99 0.00 L 109.25 0.00 C 110.19 0.73 111.12 1.48 112.04 2.23 C 111.76 9.05 112.73 15.98 111.11 22.69 C 109.96 23.22 108.82 23.74 107.68 24.27 C 105.54 22.73 102.94 20.98 103.08 17.98 C 103.04 11.93 101.57 4.95 105.99 0.00 Z" />
<path fill="#eac06f" d=" M 33.03 36.00 C 34.88 35.86 37.04 34.87 38.64 36.35 C 42.99 40.07 46.70 44.49 50.95 48.34 C 50.97 49.84 51.00 51.33 51.02 52.83 C 49.64 53.64 48.26 54.44 46.88 55.26 C 41.03 51.64 37.00 45.90 31.80 41.50 C 32.18 39.66 32.60 37.83 33.03 36.00 Z" />
<path fill="#eac06f" d=" M 172.79 48.49 C 178.02 44.10 182.04 38.35 187.90 34.73 C 189.27 35.56 190.65 36.38 192.04 37.20 C 192.00 38.69 191.97 40.17 191.94 41.66 C 186.92 46.07 182.92 51.67 177.16 55.19 C 176.11 54.69 175.07 54.19 174.03 53.69 C 173.57 51.97 173.18 50.23 172.79 48.49 Z" />
<path fill="#eac06f" d=" M 82.56 44.58 C 91.52 42.36 100.72 40.61 109.99 40.99 C 115.00 41.07 120.01 40.92 125.02 40.98 C 141.04 42.06 157.54 46.38 169.92 57.08 C 175.37 60.74 178.69 66.61 181.68 72.29 C 183.93 77.93 186.53 83.76 186.10 89.98 C 186.37 93.97 184.42 97.54 182.91 101.09 C 184.47 104.65 186.90 107.68 189.74 110.30 C 194.03 115.17 198.61 120.90 198.17 127.80 C 195.71 130.06 192.59 131.05 189.32 131.39 C 189.03 131.61 188.46 132.06 188.17 132.28 C 187.52 135.58 188.14 138.92 188.72 142.18 C 189.22 143.57 187.73 144.52 187.17 145.60 C 187.09 146.71 187.02 147.82 186.95 148.93 C 185.99 149.39 185.02 149.84 184.05 150.30 C 181.81 155.56 185.03 161.14 183.97 166.64 C 181.28 169.17 178.84 172.45 174.97 173.12 C 167.54 174.93 159.73 173.17 152.29 175.22 C 145.02 182.50 136.35 190.24 135.22 201.09 C 134.55 204.07 135.46 207.04 135.73 210.00 C 135.42 212.95 134.90 215.89 134.94 218.88 C 132.89 220.45 130.72 222.33 127.94 222.01 C 120.31 222.01 112.67 222.02 105.04 222.01 C 102.84 222.18 100.95 220.96 99.08 220.00 C 97.44 214.13 98.12 208.00 97.96 201.99 C 97.55 192.14 102.27 183.13 106.69 174.65 C 111.14 166.59 112.99 157.38 117.84 149.50 C 117.68 149.27 117.35 148.81 117.19 148.58 C 119.25 146.12 120.40 143.07 120.70 139.89 C 121.09 134.93 122.24 130.03 122.03 125.04 C 121.88 112.35 122.17 99.65 121.91 86.97 C 120.70 80.56 121.51 72.59 115.74 68.18 C 111.20 64.90 104.73 63.94 99.66 66.64 C 95.37 68.04 92.63 72.01 91.18 76.08 C 89.42 81.19 90.08 86.66 90.01 91.96 C 90.11 97.12 89.57 102.34 90.59 107.44 C 91.74 113.46 90.17 119.67 91.64 125.65 C 91.97 127.65 92.28 129.66 92.82 131.62 C 93.58 137.44 92.90 143.30 90.74 148.75 C 86.78 153.49 81.16 156.90 75.04 157.85 C 69.73 158.15 64.43 159.78 59.11 158.74 C 55.94 158.05 52.71 157.43 49.67 156.26 C 45.48 153.98 41.75 150.77 39.30 146.63 C 36.19 139.53 35.67 131.68 36.00 124.03 C 35.66 112.62 36.75 101.20 38.87 90.00 C 41.18 77.48 46.85 65.05 56.85 56.85 C 64.50 51.14 73.22 46.70 82.56 44.58 Z" />
<path fill="#eac06f" d=" M 1.94 116.02 C 6.70 112.81 12.60 114.26 17.96 113.97 C 20.53 113.70 22.85 114.81 25.03 116.02 C 25.02 117.99 25.02 119.96 25.03 121.93 C 18.34 124.02 11.24 122.62 4.36 122.97 C 3.59 122.19 2.82 121.41 2.05 120.63 C 2.01 119.09 1.98 117.56 1.94 116.02 Z" />
<path fill="#eac06f" d=" M 206.88 117.05 C 209.28 115.37 211.90 113.67 214.98 113.95 C 220.40 114.04 226.76 112.78 231.00 117.08 L 231.00 121.10 L 230.99 119.56 C 230.25 120.71 229.51 121.86 228.76 123.01 C 222.31 123.00 215.86 123.00 209.42 122.99 C 208.63 122.20 207.84 121.42 207.06 120.63 C 207.00 119.44 206.94 118.24 206.88 117.05 Z" />
<path fill="#eac06f" d=" M 11.28 138.22 C 11.79 138.76 11.79 138.76 11.28 138.22 Z" />
<path fill="#eac06f" d=" M 46.39 178.23 C 48.28 177.21 49.62 179.32 51.07 180.17 C 51.01 182.00 50.98 183.83 50.94 185.66 C 47.14 189.28 43.49 193.05 39.75 196.73 C 38.55 197.09 37.36 197.47 36.18 197.85 C 34.68 196.46 31.58 195.62 32.00 193.12 C 32.99 189.80 35.93 187.67 38.21 185.25 C 40.84 182.82 43.04 179.72 46.39 178.23 Z" />
<path fill="#eac06f" d=" M 171.01 182.97 C 170.49 180.36 173.70 179.49 175.32 178.18 C 176.45 178.55 177.59 178.91 178.74 179.27 C 182.89 184.04 188.92 187.55 191.02 193.79 C 189.71 195.69 187.96 197.19 186.00 198.39 C 181.66 195.71 178.35 191.78 174.71 188.27 C 173.20 186.73 171.63 185.09 171.01 182.97 Z" />
<path fill="#eac06f" d=" M 76.33 224.00 C 98.10 224.02 119.88 223.97 141.65 224.02 C 142.38 224.79 143.11 225.56 143.85 226.32 C 144.23 227.86 144.73 229.38 144.94 230.96 C 144.38 232.87 143.00 234.40 141.89 236.02 C 120.05 235.96 98.20 236.05 76.35 235.97 C 75.62 235.20 74.88 234.45 74.13 233.71 C 73.28 231.26 73.28 228.74 74.11 226.29 C 74.86 225.53 75.60 224.77 76.33 224.00 Z" />
<path fill="#eac06f" d=" M 74.16 238.97 C 76.00 238.02 77.85 236.82 80.01 236.99 C 99.33 237.00 118.65 237.01 137.96 236.99 C 140.16 236.80 142.03 238.03 143.89 238.99 C 144.24 240.63 144.70 242.24 144.90 243.91 C 144.47 245.87 142.96 247.38 141.88 249.02 C 120.04 248.97 98.20 249.03 76.36 248.99 C 75.65 248.22 74.94 247.45 74.22 246.68 C 73.97 245.28 73.71 243.89 73.44 242.49 C 73.68 241.32 73.94 240.14 74.16 238.97 Z" />
<path fill="#eac06f" d=" M 73.95 252.03 C 75.86 251.09 77.77 249.85 80.00 249.99 C 99.35 250.01 118.70 249.99 138.05 250.00 C 140.21 249.83 142.05 251.05 143.89 251.98 C 144.24 253.63 144.70 255.25 144.89 256.93 C 144.45 258.89 142.95 260.40 141.86 262.03 C 120.03 261.94 98.20 262.06 76.37 261.97 C 75.59 261.19 74.81 260.41 74.03 259.63 C 74.01 257.10 73.99 254.56 73.95 252.03 Z" />
<path fill="#eac06f" d=" M 86.40 264.01 C 101.47 263.99 116.53 263.99 131.60 264.01 C 132.39 264.81 133.19 265.62 133.99 266.42 C 134.00 267.49 134.00 268.57 134.02 269.64 C 133.24 270.31 132.46 270.97 131.68 271.64 C 125.62 272.08 121.07 276.39 115.69 278.67 C 113.78 279.63 111.67 280.09 109.74 281.00 L 109.21 281.00 C 104.95 279.87 100.78 278.29 97.16 275.73 C 93.22 272.83 88.36 271.86 83.89 270.11 C 83.94 268.87 83.99 267.65 84.04 266.42 C 84.82 265.61 85.61 264.81 86.40 264.01 Z" />
</svg>
